<svg width="29" height="29" viewBox="0 0 29 29" fill="none" xmlns="http://www.w3.org/2000/svg">
<path d="M27.8695 12.2352C27.8689 12.2345 27.8682 12.2339 27.8676 12.2333L16.3936 0.758878C15.9046 0.269556 15.2543 0 14.5627 0C13.871 0 13.2208 0.269342 12.7315 0.758663L1.26357 12.2273C1.25971 12.2311 1.25585 12.2352 1.25198 12.2391C0.247661 13.2492 0.249378 14.8883 1.25692 15.8959C1.71723 16.3564 2.32519 16.6232 2.97521 16.6511C3.0016 16.6537 3.02821 16.655 3.05504 16.655H3.51235V25.0994C3.51235 26.7704 4.87183 28.13 6.54313 28.13H11.0321C11.487 28.13 11.8562 27.7611 11.8562 27.3059V20.6854C11.8562 19.9229 12.4763 19.3027 13.2388 19.3027H15.8865C16.649 19.3027 17.2692 19.9229 17.2692 20.6854V27.3059C17.2692 27.7611 17.6381 28.13 18.0933 28.13H22.5822C24.2535 28.13 25.613 26.7704 25.613 25.0994V16.655H26.037C26.7285 16.655 27.3787 16.3856 27.8682 15.8963C28.8768 14.887 28.8773 13.2452 27.8695 12.2352Z" fill="#2940A6"/>
</svg>
