<svg width="29" height="30" viewBox="0 0 29 30" fill="none" xmlns="http://www.w3.org/2000/svg">
<path d="M5.67838 13.8182H7.56065V15.7784H5.67838V13.8182Z" fill="#DCDDE0"/>
<path d="M0.5 26.2873C0.5 28.0275 1.85934 29.4431 3.53025 29.4431H25.5945C27.2657 29.4431 28.625 28.0275 28.625 26.2873V9.2227H0.5V26.2873ZM11.9148 12.102H24.2708C24.7257 12.102 25.0948 12.4862 25.0948 12.9601C25.0948 13.4339 24.7257 13.8182 24.2708 13.8182H11.9148C11.4597 13.8182 11.0909 13.4339 11.0909 12.9601C11.0909 12.4862 11.4597 12.102 11.9148 12.102ZM11.9148 15.7785H24.2708C24.7257 15.7785 25.0948 16.1626 25.0948 16.6366C25.0948 17.1105 24.7257 17.4947 24.2708 17.4947H11.9148C11.4597 17.4947 11.0909 17.1105 11.0909 16.6366C11.0909 16.1626 11.4597 15.7785 11.9148 15.7785ZM4.03043 12.9601C4.03043 12.4862 4.39929 12.102 4.85441 12.102H8.38462C8.83974 12.102 9.2086 12.4862 9.2086 12.9601V16.6366C9.2086 17.1105 8.83974 17.4947 8.38462 17.4947H4.85441C4.39929 17.4947 4.03043 17.1105 4.03043 16.6366V12.9601ZM4.85441 19.4549H24.2708C24.7257 19.4549 25.0948 19.839 25.0948 20.313C25.0948 20.787 24.7257 21.1711 24.2708 21.1711H4.85441C4.39929 21.1711 4.03043 20.787 4.03043 20.313C4.03043 19.839 4.39907 19.4549 4.85441 19.4549ZM4.85441 23.1316H24.2708C24.7257 23.1316 25.0948 23.5157 25.0948 23.9897C25.0948 24.4634 24.7257 24.8478 24.2708 24.8478H4.85441C4.39929 24.8478 4.03043 24.4634 4.03043 23.9897C4.03043 23.5157 4.39907 23.1316 4.85441 23.1316Z" fill="#DCDDE0"/>
<path d="M25.5945 0.15332H3.53025C1.85934 0.15332 0.5 1.56897 0.5 3.30908V7.50619H28.625V3.30908C28.625 1.56897 27.2657 0.15332 25.5945 0.15332ZM20.7404 5.54596H8.38441C7.9295 5.54596 7.56043 5.16183 7.56043 4.68786C7.56043 4.21389 7.9295 3.82976 8.38441 3.82976H20.7404C21.1955 3.82976 21.5644 4.21389 21.5644 4.68786C21.5644 5.16183 21.1955 5.54596 20.7404 5.54596Z" fill="#DCDDE0"/>
</svg>
