<svg width="29" height="28" viewBox="0 0 29 28" fill="none" xmlns="http://www.w3.org/2000/svg">
<path d="M24.7914 13.12C23.4488 14.2904 21.7296 14.9944 19.858 14.9944C19.2102 14.9944 18.5807 14.9099 17.9788 14.7513C19.0551 16.4848 19.6823 18.5568 19.6823 20.7812V24.0481C19.6823 25.27 19.2604 26.3891 18.5639 27.2534H25.5947C27.2657 27.2534 28.625 25.8156 28.625 24.0481V20.7812C28.625 17.6016 27.1039 14.791 24.7914 13.12Z" fill="#DCDDE0"/>
<path d="M9.26722 13.2514C12.6414 13.2514 15.3865 10.348 15.3865 6.77918C15.3865 3.21015 12.6414 0.306763 9.26722 0.306763C5.893 0.306763 3.14791 3.21015 3.14791 6.77918C3.14791 10.348 5.893 13.2514 9.26722 13.2514Z" fill="#DCDDE0"/>
<path d="M19.8577 13.2514C23.232 13.2514 25.9773 10.348 25.9773 6.77918C25.9773 3.21015 23.232 0.306763 19.8577 0.306763C18.2255 0.306763 16.7406 0.986254 15.6422 2.09173C16.5191 3.42212 17.0343 5.03801 17.0343 6.77918C17.0343 8.52012 16.5191 10.136 15.6422 11.4664C16.7406 12.5719 18.2255 13.2514 19.8577 13.2514Z" fill="#DCDDE0"/>
<path d="M14.2005 13.12C12.8581 14.2904 11.1389 14.9944 9.26718 14.9944C7.39543 14.9944 5.67624 14.2906 4.33363 13.12C2.02114 14.791 0.5 17.6016 0.5 20.7812V24.0481C0.5 25.8156 1.85934 27.2534 3.53047 27.2534H15.0037C16.6748 27.2534 18.0342 25.8156 18.0342 24.0481V20.7812C18.0342 17.6016 16.5132 14.791 14.2005 13.12Z" fill="#DCDDE0"/>
</svg>
